<svg width="290" height="24" viewBox="0 0 290 24" fill="none" xmlns="http://www.w3.org/2000/svg">
<rect width="290" height="24" rx="12" fill="#1E1E1E"/>
<g opacity="0.9">
<path d="M16.9008 7.48321C16.5322 6.7405 15.4718 6.74322 15.107 7.48781L14.1937 9.35192C14.0484 9.6485 13.7661 9.85422 13.4392 9.90161L11.3353 10.2067C10.5156 10.3256 10.1874 11.3324 10.7797 11.9114L12.3088 13.4063C12.5448 13.6371 12.6518 13.9694 12.5946 14.2945L12.2398 16.3124C12.0955 17.1333 12.9597 17.7601 13.6951 17.3681L15.5288 16.3905C15.8228 16.2338 16.1756 16.2338 16.4696 16.3905L18.3071 17.3699C19.0421 17.7616 19.9058 17.1359 19.7626 16.3154L19.4097 14.2933C19.353 13.9689 19.4598 13.6374 19.6951 13.4069L21.2239 11.9097C21.8151 11.3307 21.4873 10.3251 20.6685 10.2057L18.582 9.90148C18.2572 9.85413 17.9764 9.65046 17.8305 9.35651L16.9008 7.48321Z" fill="#FCFCFC" stroke="#FCFCFC" stroke-linejoin="round"/>
</g>
<g opacity="0.9">
<path d="M32.9008 7.48321C32.5322 6.7405 31.4718 6.74322 31.107 7.48781L30.1937 9.35192C30.0484 9.6485 29.7661 9.85422 29.4392 9.90161L27.3353 10.2067C26.5156 10.3256 26.1874 11.3324 26.7797 11.9114L28.3088 13.4063C28.5448 13.6371 28.6518 13.9694 28.5946 14.2945L28.2398 16.3124C28.0955 17.1333 28.9597 17.7601 29.6951 17.3681L31.5288 16.3905C31.8228 16.2338 32.1756 16.2338 32.4696 16.3905L34.3071 17.3699C35.0421 17.7616 35.9058 17.1359 35.7626 16.3154L35.4097 14.2933C35.353 13.9689 35.4598 13.6374 35.6951 13.4069L37.2239 11.9097C37.8151 11.3307 37.4873 10.3251 36.6685 10.2057L34.582 9.90148C34.2572 9.85413 33.9764 9.65046 33.8305 9.35651L32.9008 7.48321Z" fill="#FCFCFC" stroke="#FCFCFC" stroke-linejoin="round"/>
</g>
<g opacity="0.9">
<path d="M48.9008 7.48321C48.5322 6.7405 47.4718 6.74322 47.107 7.48781L46.1937 9.35192C46.0484 9.6485 45.7661 9.85422 45.4392 9.90161L43.3353 10.2067C42.5156 10.3256 42.1874 11.3324 42.7797 11.9114L44.3088 13.4063C44.5448 13.6371 44.6518 13.9694 44.5946 14.2945L44.2398 16.3124C44.0955 17.1333 44.9597 17.7601 45.6951 17.3681L47.5288 16.3905C47.8228 16.2338 48.1756 16.2338 48.4696 16.3905L50.3071 17.3699C51.0421 17.7616 51.9058 17.1359 51.7626 16.3154L51.4097 14.2933C51.353 13.9689 51.4598 13.6374 51.6951 13.4069L53.2239 11.9097C53.8151 11.3307 53.4873 10.3251 52.6685 10.2057L50.582 9.90148C50.2572 9.85413 49.9764 9.65046 49.8305 9.35651L48.9008 7.48321Z" fill="#FCFCFC" stroke="#FCFCFC" stroke-linejoin="round"/>
</g>
<g opacity="0.9">
<path d="M64.9008 7.48321C64.5322 6.7405 63.4718 6.74322 63.107 7.48781L62.1937 9.35192C62.0484 9.6485 61.7661 9.85422 61.4392 9.90161L59.3353 10.2067C58.5156 10.3256 58.1874 11.3324 58.7797 11.9114L60.3088 13.4063C60.5448 13.6371 60.6518 13.9694 60.5946 14.2945L60.2398 16.3124C60.0955 17.1333 60.9597 17.7601 61.6951 17.3681L63.5288 16.3905C63.8228 16.2338 64.1756 16.2338 64.4696 16.3905L66.3071 17.3699C67.0421 17.7616 67.9058 17.1359 67.7626 16.3154L67.4097 14.2933C67.353 13.9689 67.4598 13.6374 67.6951 13.4069L69.2239 11.9097C69.8151 11.3307 69.4873 10.3251 68.6685 10.2057L66.582 9.90148C66.2572 9.85413 65.9764 9.65046 65.8305 9.35651L64.9008 7.48321Z" fill="#FCFCFC" stroke="#FCFCFC" stroke-linejoin="round"/>
</g>
<g opacity="0.9" clip-path="url(#clip0_16511_3330)">
<path d="M80.9008 7.48321C80.5322 6.7405 79.4718 6.74322 79.107 7.48781L78.1937 9.35192C78.0484 9.6485 77.7661 9.85422 77.4392 9.90161L75.3353 10.2067C74.5156 10.3256 74.1874 11.3324 74.7797 11.9114L76.3088 13.4063C76.5448 13.6371 76.6518 13.9694 76.5946 14.2945L76.2398 16.3124C76.0955 17.1333 76.9597 17.7601 77.6951 17.3681L79.5288 16.3905C79.8228 16.2338 80.1756 16.2338 80.4696 16.3905L82.3071 17.3699C83.0421 17.7616 83.9058 17.1359 83.7626 16.3154L83.4097 14.2933C83.353 13.9689 83.4598 13.6374 83.6951 13.4069L85.2239 11.9097C85.8151 11.3307 85.4873 10.3251 84.6685 10.2057L82.582 9.90148C82.2572 9.85413 81.9764 9.65046 81.8305 9.35651L80.9008 7.48321Z" fill="#FCFCFC" stroke="#FCFCFC" stroke-linejoin="round"/>
</g>
<path opacity="0.5" d="M95.908 17V14.936H91.516V13.964L95.884 8.06H97.012V13.964H98.176V14.936H97.012V17H95.908ZM92.404 14.384L92.236 13.964H95.908V9.044L96.256 9.14L92.404 14.384ZM99.9723 17V15.56H101.136V17H99.9723ZM106.061 17.144C105.597 17.144 105.161 17.064 104.753 16.904C104.345 16.736 103.989 16.5 103.685 16.196C103.389 15.884 103.173 15.52 103.037 15.104L103.997 14.696C104.165 15.136 104.437 15.48 104.813 15.728C105.197 15.968 105.613 16.088 106.061 16.088C106.429 16.088 106.753 16.008 107.033 15.848C107.321 15.68 107.545 15.452 107.705 15.164C107.865 14.868 107.945 14.54 107.945 14.18C107.945 13.804 107.861 13.472 107.693 13.184C107.533 12.896 107.313 12.672 107.033 12.512C106.753 12.344 106.433 12.26 106.073 12.26C105.705 12.26 105.369 12.344 105.065 12.512C104.761 12.68 104.541 12.892 104.405 13.148L103.457 12.944L104.141 8.06H108.773V9.08H104.585L105.041 8.624L104.513 12.416L104.105 12.176C104.369 11.84 104.677 11.6 105.029 11.456C105.389 11.304 105.777 11.228 106.193 11.228C106.777 11.228 107.289 11.36 107.729 11.624C108.169 11.888 108.513 12.24 108.761 12.68C109.009 13.12 109.133 13.62 109.133 14.18C109.133 14.74 108.997 15.244 108.725 15.692C108.461 16.14 108.097 16.496 107.633 16.76C107.177 17.016 106.653 17.144 106.061 17.144ZM115.866 17.144C115.242 17.144 114.678 17 114.174 16.712C113.67 16.416 113.27 16.012 112.974 15.5C112.678 14.988 112.53 14.408 112.53 13.76C112.53 13.112 112.674 12.536 112.962 12.032C113.258 11.528 113.658 11.128 114.162 10.832C114.666 10.536 115.234 10.388 115.866 10.388C116.49 10.388 117.054 10.536 117.558 10.832C118.062 11.12 118.458 11.516 118.746 12.02C119.042 12.524 119.19 13.104 119.19 13.76C119.19 14.416 119.038 15 118.734 15.512C118.43 16.016 118.026 16.416 117.522 16.712C117.026 17 116.474 17.144 115.866 17.144ZM115.866 16.064C116.266 16.064 116.626 15.964 116.946 15.764C117.274 15.564 117.53 15.288 117.714 14.936C117.906 14.584 118.002 14.192 118.002 13.76C118.002 13.32 117.906 12.932 117.714 12.596C117.53 12.252 117.274 11.98 116.946 11.78C116.626 11.572 116.266 11.468 115.866 11.468C115.458 11.468 115.09 11.572 114.762 11.78C114.442 11.98 114.186 12.252 113.994 12.596C113.802 12.932 113.706 13.32 113.706 13.76C113.706 14.192 113.802 14.584 113.994 14.936C114.186 15.288 114.442 15.564 114.762 15.764C115.09 15.964 115.458 16.064 115.866 16.064ZM122.937 17.144C122.473 17.144 122.053 17.036 121.677 16.82C121.309 16.604 121.021 16.304 120.813 15.92C120.613 15.528 120.513 15.08 120.513 14.576V10.532H121.629V14.456C121.629 14.776 121.693 15.056 121.821 15.296C121.957 15.536 122.141 15.724 122.373 15.86C122.613 15.996 122.885 16.064 123.189 16.064C123.493 16.064 123.761 15.996 123.993 15.86C124.233 15.724 124.417 15.528 124.545 15.272C124.681 15.016 124.749 14.712 124.749 14.36V10.532H125.877V17H124.785V15.74L124.965 15.848C124.813 16.256 124.553 16.576 124.185 16.808C123.825 17.032 123.409 17.144 122.937 17.144ZM130.234 17.072C129.602 17.072 129.114 16.892 128.77 16.532C128.434 16.172 128.266 15.664 128.266 15.008V11.6H127.09V10.532H127.33C127.618 10.532 127.846 10.444 128.014 10.268C128.182 10.092 128.266 9.86 128.266 9.572V9.044H129.382V10.532H130.834V11.6H129.382V14.972C129.382 15.188 129.414 15.376 129.478 15.536C129.55 15.696 129.666 15.824 129.826 15.92C129.986 16.008 130.198 16.052 130.462 16.052C130.518 16.052 130.586 16.048 130.666 16.04C130.754 16.032 130.834 16.024 130.906 16.016V17C130.802 17.024 130.686 17.04 130.558 17.048C130.43 17.064 130.322 17.072 130.234 17.072ZM137.51 17.144C136.886 17.144 136.322 17 135.818 16.712C135.314 16.416 134.914 16.012 134.618 15.5C134.322 14.988 134.174 14.408 134.174 13.76C134.174 13.112 134.318 12.536 134.606 12.032C134.902 11.528 135.302 11.128 135.806 10.832C136.31 10.536 136.878 10.388 137.51 10.388C138.134 10.388 138.698 10.536 139.202 10.832C139.706 11.12 140.102 11.516 140.39 12.02C140.686 12.524 140.834 13.104 140.834 13.76C140.834 14.416 140.682 15 140.378 15.512C140.074 16.016 139.67 16.416 139.166 16.712C138.67 17 138.118 17.144 137.51 17.144ZM137.51 16.064C137.91 16.064 138.27 15.964 138.59 15.764C138.918 15.564 139.174 15.288 139.358 14.936C139.55 14.584 139.646 14.192 139.646 13.76C139.646 13.32 139.55 12.932 139.358 12.596C139.174 12.252 138.918 11.98 138.59 11.78C138.27 11.572 137.91 11.468 137.51 11.468C137.102 11.468 136.734 11.572 136.406 11.78C136.086 11.98 135.83 12.252 135.638 12.596C135.446 12.932 135.35 13.32 135.35 13.76C135.35 14.192 135.446 14.584 135.638 14.936C135.83 15.288 136.086 15.564 136.406 15.764C136.734 15.964 137.102 16.064 137.51 16.064ZM142.775 17V11.6H141.539V10.532H142.775V10.076C142.775 9.612 142.875 9.22 143.075 8.9C143.283 8.58 143.555 8.336 143.891 8.168C144.235 8 144.615 7.916 145.031 7.916C145.119 7.916 145.215 7.924 145.319 7.94C145.431 7.948 145.523 7.96 145.595 7.976V8.972C145.531 8.956 145.455 8.948 145.367 8.948C145.279 8.94 145.211 8.936 145.163 8.936C144.795 8.936 144.491 9.024 144.251 9.2C144.019 9.376 143.903 9.668 143.903 10.076V10.532H145.439V11.6H143.903V17H142.775ZM151.67 17.144C151.206 17.144 150.77 17.064 150.362 16.904C149.954 16.736 149.598 16.5 149.294 16.196C148.998 15.884 148.782 15.52 148.646 15.104L149.606 14.696C149.774 15.136 150.046 15.48 150.422 15.728C150.806 15.968 151.222 16.088 151.67 16.088C152.038 16.088 152.362 16.008 152.642 15.848C152.93 15.68 153.154 15.452 153.314 15.164C153.474 14.868 153.554 14.54 153.554 14.18C153.554 13.804 153.47 13.472 153.302 13.184C153.142 12.896 152.922 12.672 152.642 12.512C152.362 12.344 152.042 12.26 151.682 12.26C151.314 12.26 150.978 12.344 150.674 12.512C150.37 12.68 150.15 12.892 150.014 13.148L149.066 12.944L149.75 8.06H154.382V9.08H150.194L150.65 8.624L150.122 12.416L149.714 12.176C149.978 11.84 150.286 11.6 150.638 11.456C150.998 11.304 151.386 11.228 151.802 11.228C152.386 11.228 152.898 11.36 153.338 11.624C153.778 11.888 154.122 12.24 154.37 12.68C154.618 13.12 154.742 13.62 154.742 14.18C154.742 14.74 154.606 15.244 154.334 15.692C154.07 16.14 153.706 16.496 153.242 16.76C152.786 17.016 152.262 17.144 151.67 17.144Z" fill="#FCFCFC"/>
<path opacity="0.5" d="M165.404 19.28V6.86H166.58V19.28H165.404Z" fill="#FCFCFC"/>
<path opacity="0.5" d="M179.6 17.144C179.136 17.144 178.7 17.064 178.292 16.904C177.884 16.736 177.528 16.5 177.224 16.196C176.928 15.884 176.712 15.52 176.576 15.104L177.536 14.696C177.704 15.136 177.976 15.48 178.352 15.728C178.736 15.968 179.152 16.088 179.6 16.088C179.968 16.088 180.292 16.008 180.572 15.848C180.86 15.68 181.084 15.452 181.244 15.164C181.404 14.868 181.484 14.54 181.484 14.18C181.484 13.804 181.4 13.472 181.232 13.184C181.072 12.896 180.852 12.672 180.572 12.512C180.292 12.344 179.972 12.26 179.612 12.26C179.244 12.26 178.908 12.344 178.604 12.512C178.3 12.68 178.08 12.892 177.944 13.148L176.996 12.944L177.68 8.06H182.312V9.08H178.124L178.58 8.624L178.052 12.416L177.644 12.176C177.908 11.84 178.216 11.6 178.568 11.456C178.928 11.304 179.316 11.228 179.732 11.228C180.316 11.228 180.828 11.36 181.268 11.624C181.708 11.888 182.052 12.24 182.3 12.68C182.548 13.12 182.672 13.62 182.672 14.18C182.672 14.74 182.536 15.244 182.264 15.692C182 16.14 181.636 16.496 181.172 16.76C180.716 17.016 180.192 17.144 179.6 17.144ZM187.751 17.144C187.039 17.144 186.415 16.952 185.879 16.568C185.351 16.176 184.939 15.636 184.643 14.948C184.347 14.252 184.199 13.444 184.199 12.524C184.199 11.604 184.347 10.8 184.643 10.112C184.939 9.416 185.351 8.876 185.879 8.492C186.407 8.108 187.027 7.916 187.739 7.916C188.451 7.916 189.071 8.108 189.599 8.492C190.127 8.876 190.539 9.416 190.835 10.112C191.139 10.8 191.291 11.604 191.291 12.524C191.291 13.444 191.143 14.252 190.847 14.948C190.551 15.644 190.135 16.184 189.599 16.568C189.071 16.952 188.455 17.144 187.751 17.144ZM187.751 16.052C188.231 16.052 188.647 15.908 188.999 15.62C189.351 15.324 189.623 14.912 189.815 14.384C190.015 13.856 190.115 13.236 190.115 12.524C190.115 11.812 190.015 11.192 189.815 10.664C189.623 10.136 189.347 9.728 188.987 9.44C188.635 9.152 188.219 9.008 187.739 9.008C187.259 9.008 186.843 9.152 186.491 9.44C186.139 9.728 185.863 10.136 185.663 10.664C185.471 11.192 185.375 11.812 185.375 12.524C185.375 13.228 185.471 13.844 185.663 14.372C185.863 14.9 186.139 15.312 186.491 15.608C186.851 15.904 187.271 16.052 187.751 16.052ZM196.434 17.144C195.722 17.144 195.098 16.952 194.562 16.568C194.034 16.176 193.622 15.636 193.326 14.948C193.03 14.252 192.882 13.444 192.882 12.524C192.882 11.604 193.03 10.8 193.326 10.112C193.622 9.416 194.034 8.876 194.562 8.492C195.09 8.108 195.71 7.916 196.422 7.916C197.134 7.916 197.754 8.108 198.282 8.492C198.81 8.876 199.222 9.416 199.518 10.112C199.822 10.8 199.974 11.604 199.974 12.524C199.974 13.444 199.826 14.252 199.53 14.948C199.234 15.644 198.818 16.184 198.282 16.568C197.754 16.952 197.138 17.144 196.434 17.144ZM196.434 16.052C196.914 16.052 197.33 15.908 197.682 15.62C198.034 15.324 198.306 14.912 198.498 14.384C198.698 13.856 198.798 13.236 198.798 12.524C198.798 11.812 198.698 11.192 198.498 10.664C198.306 10.136 198.03 9.728 197.67 9.44C197.318 9.152 196.902 9.008 196.422 9.008C195.942 9.008 195.526 9.152 195.174 9.44C194.822 9.728 194.546 10.136 194.346 10.664C194.154 11.192 194.058 11.812 194.058 12.524C194.058 13.228 194.154 13.844 194.346 14.372C194.546 14.9 194.822 15.312 195.174 15.608C195.534 15.904 195.954 16.052 196.434 16.052ZM205.118 17.144C204.406 17.144 203.782 16.952 203.246 16.568C202.718 16.176 202.306 15.636 202.01 14.948C201.714 14.252 201.566 13.444 201.566 12.524C201.566 11.604 201.714 10.8 202.01 10.112C202.306 9.416 202.718 8.876 203.246 8.492C203.774 8.108 204.394 7.916 205.106 7.916C205.818 7.916 206.438 8.108 206.966 8.492C207.494 8.876 207.906 9.416 208.202 10.112C208.506 10.8 208.658 11.604 208.658 12.524C208.658 13.444 208.51 14.252 208.214 14.948C207.918 15.644 207.502 16.184 206.966 16.568C206.438 16.952 205.822 17.144 205.118 17.144ZM205.118 16.052C205.598 16.052 206.014 15.908 206.366 15.62C206.718 15.324 206.99 14.912 207.182 14.384C207.382 13.856 207.482 13.236 207.482 12.524C207.482 11.812 207.382 11.192 207.182 10.664C206.99 10.136 206.714 9.728 206.354 9.44C206.002 9.152 205.586 9.008 205.106 9.008C204.626 9.008 204.21 9.152 203.858 9.44C203.506 9.728 203.23 10.136 203.03 10.664C202.838 11.192 202.742 11.812 202.742 12.524C202.742 13.228 202.838 13.844 203.03 14.372C203.23 14.9 203.506 15.312 203.858 15.608C204.218 15.904 204.638 16.052 205.118 16.052ZM213.801 17.144C213.089 17.144 212.465 16.952 211.929 16.568C211.401 16.176 210.989 15.636 210.693 14.948C210.397 14.252 210.249 13.444 210.249 12.524C210.249 11.604 210.397 10.8 210.693 10.112C210.989 9.416 211.401 8.876 211.929 8.492C212.457 8.108 213.077 7.916 213.789 7.916C214.501 7.916 215.121 8.108 215.649 8.492C216.177 8.876 216.589 9.416 216.885 10.112C217.189 10.8 217.341 11.604 217.341 12.524C217.341 13.444 217.193 14.252 216.897 14.948C216.601 15.644 216.185 16.184 215.649 16.568C215.121 16.952 214.505 17.144 213.801 17.144ZM213.801 16.052C214.281 16.052 214.697 15.908 215.049 15.62C215.401 15.324 215.673 14.912 215.865 14.384C216.065 13.856 216.165 13.236 216.165 12.524C216.165 11.812 216.065 11.192 215.865 10.664C215.673 10.136 215.397 9.728 215.037 9.44C214.685 9.152 214.269 9.008 213.789 9.008C213.309 9.008 212.893 9.152 212.541 9.44C212.189 9.728 211.913 10.136 211.713 10.664C211.521 11.192 211.425 11.812 211.425 12.524C211.425 13.228 211.521 13.844 211.713 14.372C211.913 14.9 212.189 15.312 212.541 15.608C212.901 15.904 213.321 16.052 213.801 16.052ZM221.357 17V14.516H218.873V13.472H221.357V11H222.401V13.472H224.873V14.516H222.401V17H221.357ZM230.871 17.144C230.223 17.144 229.659 16.984 229.179 16.664C228.699 16.344 228.359 15.912 228.159 15.368L229.047 14.936C229.231 15.32 229.483 15.624 229.803 15.848C230.123 16.072 230.479 16.184 230.871 16.184C231.223 16.184 231.515 16.1 231.747 15.932C231.979 15.764 232.095 15.544 232.095 15.272C232.095 15.08 232.039 14.928 231.927 14.816C231.823 14.696 231.695 14.604 231.543 14.54C231.391 14.468 231.251 14.416 231.123 14.384L230.151 14.108C229.567 13.94 229.139 13.7 228.867 13.388C228.603 13.076 228.471 12.712 228.471 12.296C228.471 11.912 228.567 11.58 228.759 11.3C228.959 11.012 229.227 10.788 229.563 10.628C229.907 10.468 230.291 10.388 230.715 10.388C231.283 10.388 231.791 10.532 232.239 10.82C232.695 11.108 233.019 11.512 233.211 12.032L232.299 12.452C232.155 12.116 231.939 11.852 231.651 11.66C231.363 11.46 231.039 11.36 230.679 11.36C230.351 11.36 230.091 11.444 229.899 11.612C229.707 11.772 229.611 11.976 229.611 12.224C229.611 12.408 229.659 12.56 229.755 12.68C229.851 12.792 229.967 12.88 230.103 12.944C230.239 13 230.371 13.048 230.499 13.088L231.555 13.4C232.083 13.552 232.491 13.788 232.779 14.108C233.075 14.428 233.223 14.812 233.223 15.26C233.223 15.62 233.123 15.944 232.923 16.232C232.723 16.52 232.447 16.744 232.095 16.904C231.743 17.064 231.335 17.144 230.871 17.144ZM237.312 17.072C236.68 17.072 236.192 16.892 235.848 16.532C235.512 16.172 235.344 15.664 235.344 15.008V11.6H234.168V10.532H234.408C234.696 10.532 234.924 10.444 235.092 10.268C235.26 10.092 235.344 9.86 235.344 9.572V9.044H236.46V10.532H237.912V11.6H236.46V14.972C236.46 15.188 236.492 15.376 236.556 15.536C236.628 15.696 236.744 15.824 236.904 15.92C237.064 16.008 237.276 16.052 237.54 16.052C237.596 16.052 237.664 16.048 237.744 16.04C237.832 16.032 237.912 16.024 237.984 16.016V17C237.88 17.024 237.764 17.04 237.636 17.048C237.508 17.064 237.4 17.072 237.312 17.072ZM241.734 17.144C241.27 17.144 240.85 17.036 240.474 16.82C240.106 16.604 239.818 16.304 239.61 15.92C239.41 15.528 239.31 15.08 239.31 14.576V10.532H240.426V14.456C240.426 14.776 240.49 15.056 240.618 15.296C240.754 15.536 240.938 15.724 241.17 15.86C241.41 15.996 241.682 16.064 241.986 16.064C242.29 16.064 242.558 15.996 242.79 15.86C243.03 15.724 243.214 15.528 243.342 15.272C243.478 15.016 243.546 14.712 243.546 14.36V10.532H244.674V17H243.582V15.74L243.762 15.848C243.61 16.256 243.35 16.576 242.982 16.808C242.622 17.032 242.206 17.144 241.734 17.144ZM249.343 17.144C248.735 17.144 248.187 16.996 247.699 16.7C247.219 16.404 246.839 16 246.559 15.488C246.279 14.976 246.139 14.404 246.139 13.772C246.139 13.124 246.279 12.548 246.559 12.044C246.839 11.532 247.219 11.128 247.699 10.832C248.187 10.536 248.735 10.388 249.343 10.388C249.879 10.388 250.355 10.504 250.771 10.736C251.187 10.96 251.515 11.264 251.755 11.648L251.575 11.924V7.916H252.703V17H251.611V15.62L251.755 15.812C251.531 16.236 251.203 16.564 250.771 16.796C250.347 17.028 249.871 17.144 249.343 17.144ZM249.439 16.064C249.847 16.064 250.211 15.964 250.531 15.764C250.851 15.564 251.103 15.292 251.287 14.948C251.479 14.596 251.575 14.204 251.575 13.772C251.575 13.332 251.479 12.94 251.287 12.596C251.103 12.244 250.851 11.968 250.531 11.768C250.211 11.568 249.847 11.468 249.439 11.468C249.039 11.468 248.675 11.572 248.347 11.78C248.027 11.98 247.775 12.252 247.591 12.596C247.407 12.932 247.315 13.324 247.315 13.772C247.315 14.204 247.407 14.596 247.591 14.948C247.775 15.292 248.027 15.564 248.347 15.764C248.667 15.964 249.031 16.064 249.439 16.064ZM257.406 17.144C256.782 17.144 256.226 16.996 255.738 16.7C255.25 16.404 254.866 16 254.586 15.488C254.306 14.968 254.166 14.388 254.166 13.748C254.166 13.1 254.302 12.524 254.574 12.02C254.854 11.516 255.23 11.12 255.702 10.832C256.182 10.536 256.718 10.388 257.31 10.388C257.79 10.388 258.214 10.476 258.582 10.652C258.958 10.82 259.274 11.052 259.53 11.348C259.794 11.636 259.994 11.968 260.13 12.344C260.274 12.712 260.346 13.096 260.346 13.496C260.346 13.584 260.338 13.684 260.322 13.796C260.314 13.9 260.302 14 260.286 14.096H254.982V13.136H259.638L259.11 13.568C259.182 13.152 259.142 12.78 258.99 12.452C258.838 12.124 258.614 11.864 258.318 11.672C258.022 11.48 257.686 11.384 257.31 11.384C256.934 11.384 256.59 11.48 256.278 11.672C255.966 11.864 255.722 12.14 255.546 12.5C255.378 12.852 255.31 13.272 255.342 13.76C255.31 14.232 255.382 14.648 255.558 15.008C255.742 15.36 255.998 15.636 256.326 15.836C256.662 16.028 257.026 16.124 257.418 16.124C257.85 16.124 258.214 16.024 258.51 15.824C258.806 15.624 259.046 15.368 259.23 15.056L260.166 15.536C260.038 15.832 259.838 16.104 259.566 16.352C259.302 16.592 258.986 16.784 258.618 16.928C258.258 17.072 257.854 17.144 257.406 17.144ZM261.802 17V10.532H262.894V11.792L262.714 11.684C262.874 11.276 263.13 10.96 263.482 10.736C263.842 10.504 264.262 10.388 264.742 10.388C265.206 10.388 265.618 10.492 265.978 10.7C266.346 10.908 266.634 11.196 266.842 11.564C267.058 11.932 267.166 12.348 267.166 12.812V17H266.038V13.172C266.038 12.812 265.974 12.508 265.846 12.26C265.718 12.012 265.534 11.82 265.294 11.684C265.062 11.54 264.794 11.468 264.49 11.468C264.186 11.468 263.914 11.54 263.674 11.684C263.442 11.82 263.258 12.016 263.122 12.272C262.986 12.52 262.918 12.82 262.918 13.172V17H261.802ZM271.39 17.072C270.758 17.072 270.27 16.892 269.926 16.532C269.59 16.172 269.422 15.664 269.422 15.008V11.6H268.246V10.532H268.486C268.774 10.532 269.002 10.444 269.17 10.268C269.338 10.092 269.422 9.86 269.422 9.572V9.044H270.538V10.532H271.99V11.6H270.538V14.972C270.538 15.188 270.57 15.376 270.634 15.536C270.706 15.696 270.822 15.824 270.982 15.92C271.142 16.008 271.354 16.052 271.618 16.052C271.674 16.052 271.742 16.048 271.822 16.04C271.91 16.032 271.99 16.024 272.062 16.016V17C271.958 17.024 271.842 17.04 271.714 17.048C271.586 17.064 271.478 17.072 271.39 17.072ZM275.836 17.144C275.188 17.144 274.624 16.984 274.144 16.664C273.664 16.344 273.324 15.912 273.124 15.368L274.012 14.936C274.196 15.32 274.448 15.624 274.768 15.848C275.088 16.072 275.444 16.184 275.836 16.184C276.188 16.184 276.48 16.1 276.712 15.932C276.944 15.764 277.06 15.544 277.06 15.272C277.06 15.08 277.004 14.928 276.892 14.816C276.788 14.696 276.66 14.604 276.508 14.54C276.356 14.468 276.216 14.416 276.088 14.384L275.116 14.108C274.532 13.94 274.104 13.7 273.832 13.388C273.568 13.076 273.436 12.712 273.436 12.296C273.436 11.912 273.532 11.58 273.724 11.3C273.924 11.012 274.192 10.788 274.528 10.628C274.872 10.468 275.256 10.388 275.68 10.388C276.248 10.388 276.756 10.532 277.204 10.82C277.66 11.108 277.984 11.512 278.176 12.032L277.264 12.452C277.12 12.116 276.904 11.852 276.616 11.66C276.328 11.46 276.004 11.36 275.644 11.36C275.316 11.36 275.056 11.444 274.864 11.612C274.672 11.772 274.576 11.976 274.576 12.224C274.576 12.408 274.624 12.56 274.72 12.68C274.816 12.792 274.932 12.88 275.068 12.944C275.204 13 275.336 13.048 275.464 13.088L276.52 13.4C277.048 13.552 277.456 13.788 277.744 14.108C278.04 14.428 278.188 14.812 278.188 15.26C278.188 15.62 278.088 15.944 277.888 16.232C277.688 16.52 277.412 16.744 277.06 16.904C276.708 17.064 276.3 17.144 275.836 17.144Z" fill="#FCFCFC"/>
<defs>
<clipPath id="clip0_16511_3330">
<rect width="11" height="16" fill="white" transform="translate(72 4)"/>
</clipPath>
</defs>
</svg>
